<?xml version="1.0" encoding="UTF-8"?>
<!--Generator: Apple Native CoreSVG 326-->
<!DOCTYPE svg
PUBLIC "-//W3C//DTD SVG 1.1//EN"
       "http://www.w3.org/Graphics/SVG/1.1/DTD/svg11.dtd">
<svg version="1.1" xmlns="http://www.w3.org/2000/svg" xmlns:xlink="http://www.w3.org/1999/xlink" viewBox="0 0 62.5684 38.6133">
 <g>
  <rect height="38.6133" opacity="0" width="62.5684" x="0" y="0"/>
  <path d="M47.1094 38.5938C50.918 38.5938 54.5215 36.5918 56.0742 33.3887L56.1035 33.3887L56.1035 35.8203C56.2012 37.6074 57.3828 38.6133 59.1406 38.6133C60.9668 38.6133 62.1973 37.5293 62.1973 35.4883L62.1973 18.9844C62.1973 13.3008 57.7441 9.55078 50.7324 9.55078C45.1367 9.55078 40.8496 11.7285 39.4629 15.2051C39.2383 15.8203 39.0723 16.3867 39.0723 16.9531C39.0723 18.3887 40.1562 19.375 41.748 19.375C42.8516 19.375 43.6816 18.9648 44.3262 18.125C45.8594 15.498 47.6562 14.3164 50.4883 14.3164C53.8867 14.3164 55.9961 16.2207 55.9961 19.4043L55.9961 21.3477L48.3594 21.7871C41.416 22.1875 37.6172 25.2051 37.6172 30.1953C37.6172 35.2148 41.6016 38.5938 47.1094 38.5938ZM48.9062 34.0137C45.9668 34.0137 43.916 32.373 43.916 29.9023C43.916 27.5293 45.791 25.9668 49.2285 25.7324L55.9961 25.2637L55.9961 27.7832C55.9961 31.3184 52.8613 34.0137 48.9062 34.0137Z" fill="black"/>
  <path d="M3.48633 38.5352C5.52734 38.5352 6.63086 37.6562 7.22656 35.5078L9.62891 28.6426L23.6328 28.6426L26.0352 35.5078C26.6309 37.6562 27.7344 38.5352 29.7754 38.5352C31.9824 38.5352 33.4082 37.2168 33.4082 35.166C33.4082 34.3848 33.2812 33.7305 32.998 32.9004L22.4805 4.08203C21.5234 1.36719 19.6875 0.0585938 16.6797 0.0585938C13.8184 0.0585938 11.9922 1.36719 11.0547 4.0625L0.390625 33.1445C0.136719 33.916 0 34.6094 0 35.2539C0 37.2949 1.32812 38.5352 3.48633 38.5352ZM11.2598 23.1543L16.6113 7.17773L16.7773 7.17773L22.1191 23.1543Z" fill="black"/>
 </g>
</svg>
